<svg width="48" height="48" viewBox="0 0 48 48" fill="none" xmlns="http://www.w3.org/2000/svg">
<path d="M44 24C44 35.0457 35.0457 44 24 44C12.9543 44 4 35.0457 4 24C4 12.9543 12.9543 4 24 4C35.0457 4 44 12.9543 44 24Z" fill="#ADF2D1"/>
<path d="M23.2798 30.416C24.4318 30.416 25.2638 30.2027 25.7758 29.776C26.3091 29.3494 26.5758 28.8267 26.5758 28.208C26.5758 27.6534 26.3731 27.2054 25.9678 26.864C25.5625 26.5227 24.9545 26.224 24.1438 25.968L22.3838 25.392C21.5091 25.1147 20.7198 24.816 20.0158 24.496C19.3118 24.176 18.7145 23.792 18.2238 23.344C17.7331 22.896 17.3491 22.3627 17.0718 21.744C16.7945 21.1254 16.6558 20.3894 16.6558 19.536C16.6558 18.0854 17.1038 16.88 17.9998 15.92C18.8958 14.96 20.1758 14.32 21.8398 14V12.8384C21.8398 12.0354 22.3868 11.3137 23.1881 11.2625C23.3371 11.2529 23.4854 11.248 23.6318 11.248C24.4211 11.248 24.9865 11.3867 25.3278 11.664C25.6905 11.9414 25.8718 12.4427 25.8718 13.168V13.872C27.2371 14.0214 28.3465 14.352 29.1998 14.864C30.0531 15.3547 30.4798 16.0054 30.4798 16.816C30.4798 17.1847 30.3889 17.5256 30.2321 17.8341C29.8447 18.5958 28.8234 18.554 28.0209 18.26C27.8002 18.1791 27.5638 18.1031 27.3118 18.032C26.5011 17.776 25.6158 17.648 24.6558 17.648C23.5891 17.648 22.7891 17.8294 22.2558 18.192C21.7438 18.5334 21.4878 18.9814 21.4878 19.536C21.4878 19.984 21.6585 20.3467 21.9998 20.624C22.3625 20.9014 22.9065 21.1574 23.6318 21.392L25.4238 21.936C27.3438 22.5334 28.8158 23.3227 29.8398 24.304C30.8851 25.2854 31.4078 26.608 31.4078 28.272C31.4078 29.744 30.9385 30.992 29.9998 32.016C29.0611 33.0187 27.6851 33.6907 25.8718 34.032V35.1617C25.8718 35.9647 25.3249 36.6865 24.5235 36.7377C24.3746 36.7472 24.2263 36.752 24.0798 36.752C23.2905 36.752 22.7145 36.6134 22.3518 36.336C22.0105 36.0587 21.8398 35.5574 21.8398 34.832V34.192C20.2825 34.0214 19.0131 33.648 18.0318 33.072C17.0718 32.4747 16.5918 31.728 16.5918 30.832C16.5918 30.3074 16.7761 29.8518 17.0717 29.4691C17.5801 28.8108 18.542 28.9629 19.2661 29.3722C19.5738 29.5462 19.909 29.7128 20.2718 29.872C21.1465 30.2347 22.1491 30.416 23.2798 30.416Z" fill="#059D54"/>
</svg>
