<svg width="48" height="48" viewBox="0 0 48 48" fill="none" xmlns="http://www.w3.org/2000/svg">
<circle cx="24" cy="24" r="21" fill="#91BEFF"/>
<path d="M4.66992 32.2227C5.8634 29.1751 8.44015 26.8213 11.6278 25.9338C9.56572 24.8986 8.15054 22.7646 8.15054 20.3C8.15054 16.8206 10.9711 14 14.4505 14C17.9299 14 20.7505 16.8206 20.7505 20.3C20.7505 22.7646 19.3354 24.8986 17.2733 25.9338C20.268 26.7676 22.7235 28.8955 23.9994 31.677C25.2753 28.8955 27.7308 26.7676 30.7255 25.9338C28.6634 24.8986 27.2483 22.7646 27.2483 20.3C27.2483 16.8206 30.0689 14 33.5483 14C37.0276 14 39.8483 16.8206 39.8483 20.3C39.8483 22.7646 38.4331 24.8986 36.371 25.9338C39.5583 26.8212 42.1348 29.1746 43.3285 32.2216C40.1292 39.7335 32.6791 44.9999 23.999 44.9999C15.3192 44.9999 7.86939 39.734 4.66992 32.2227Z" fill="#1F78F0"/>
</svg>
