<svg width="14" height="14" viewBox="0 0 14 14" fill="none" xmlns="http://www.w3.org/2000/svg">
<path d="M6.99999 3.39C5.52488 3.39 3.98293 3.39 2.69032 3.62101C2.07073 3.73175 1.58263 4.2049 1.4496 4.82009C1.23999 5.78945 1.23999 6.69366 1.23999 8.07C1.23999 9.44634 1.23999 10.3505 1.4496 11.3199C1.58263 11.9351 2.07073 12.4083 2.69032 12.519C3.98293 12.75 5.52488 12.75 6.99999 12.75C8.4751 12.75 10.0171 12.75 11.3097 12.519C11.9293 12.4083 12.4174 11.9351 12.5504 11.3199C12.76 10.3505 12.76 9.44634 12.76 8.07C12.76 6.69366 12.76 5.78945 12.5504 4.82009C12.4174 4.2049 11.9293 3.73175 11.3097 3.62101C10.0171 3.39 8.4751 3.39 6.99999 3.39Z" fill="#DBEAFE" stroke="#1D4ED8" stroke-width="1.5"/>
<path d="M4.59998 3.15V2.75C4.59998 1.64543 5.49541 0.75 6.59998 0.75H7.39998C8.50455 0.75 9.39998 1.64543 9.39998 2.75V3.15" stroke="#1D4ED8" stroke-width="1.5"/>
<path d="M8.31282 6.63864C8.31282 6.63864 7.81927 6.08847 7.01877 6.15722C6.21827 6.22598 5.8324 6.71778 5.8324 7.21094C5.8324 8.64928 8.31282 7.65249 8.31282 9.12747C8.31282 9.88788 6.66746 10.4246 5.68716 9.53004" stroke="#4147D5" stroke-width="1.5" stroke-linecap="round" stroke-linejoin="round"/>
<path d="M7.11688 5.19L7.11688 6.15127" stroke="#4147D5" stroke-width="1.5" stroke-linecap="round"/>
<path d="M7.11688 9.98874L7.11688 10.95" stroke="#4147D5" stroke-width="1.5" stroke-linecap="round"/>
</svg>
