<svg width="48" height="48" viewBox="0 0 48 48" fill="none" xmlns="http://www.w3.org/2000/svg">
<path d="M42 25C42 35.4934 33.4934 44 23 44C12.5066 44 4 35.4934 4 25C4 14.5066 12.5066 6 23 6C33.4934 6 42 14.5066 42 25Z" fill="#1F78F0"/>
<path d="M45.8794 24.4914C44.7195 12.6775 35.3228 3.28081 23.5089 2.12083C22.001 1.97278 20.7212 2.90685 20.5105 4.40722C20.2537 6.23643 20 9.34348 20 14.4803C20 20.8736 20.393 24.1227 20.6959 25.6773C20.8613 26.5268 21.4734 27.1389 22.323 27.3044C23.8775 27.6072 27.1267 28.0003 33.52 28.0003C38.6568 28.0003 41.7638 27.7466 43.593 27.4897C45.0934 27.2791 46.0275 25.9992 45.8794 24.4914Z" fill="#91BEFF"/>
</svg>
