<svg width="49" height="48" viewBox="0 0 49 48" fill="none" xmlns="http://www.w3.org/2000/svg">
<path fill-rule="evenodd" clip-rule="evenodd" d="M34.6284 4.17191C34.8696 4.18629 36.9133 4.41337 40.4999 7.99998C44.1181 11.6182 44.3141 13.5854 44.3248 13.7879C44.3249 13.7924 44.3251 13.797 44.3253 13.8016C44.3254 13.8041 44.3254 13.8053 44.3254 13.8053L44.3255 13.8052C44.4293 16.4095 44.5 19.7451 44.5 24C44.5 33.2895 44.1629 39.2081 43.8802 42.5387C43.7495 44.0781 42.0071 44.756 40.8203 43.7669L37.5 41L34.7658 43.7342C34.0452 44.4548 32.898 44.5184 32.1022 43.8817L28.5 41L25.9142 43.5858C25.1332 44.3668 23.8668 44.3668 23.0858 43.5858L20.5 41L16.8978 43.8817C16.102 44.5184 14.9548 44.4548 14.2342 43.7342L11.5 41L8.1797 43.7669C6.99285 44.756 5.25053 44.0781 5.11984 42.5387C4.83709 39.2081 4.5 33.2895 4.5 24C4.5 15.4507 4.78551 10.6131 5.05141 7.96144C5.23985 6.08233 6.58233 4.73985 8.46144 4.55141C11.1131 4.28551 15.9507 4 24.5 4C28.7189 4 32.0339 4.06953 34.6284 4.17191Z" fill="#FFD7D7"/>
<path d="M44.3255 13.8062C43.4504 13.9139 42.2134 14.0009 40.5 14.0009C39.241 14.0009 38.2393 13.9539 37.4493 13.8863C35.7292 13.739 34.6117 12.4239 34.5456 10.6988C34.5183 9.98491 34.5 9.09751 34.5 8.00091C34.5 6.22796 34.5478 5.00184 34.6043 4.17188C34.6043 4.17188 36.6745 4.17545 40.5 8.00091C44.3255 11.8264 44.3255 13.8062 44.3255 13.8062Z" fill="#BF0909"/>
<path d="M23.8197 30.5345C24.9082 30.5345 25.6944 30.3505 26.1782 29.9824C26.6821 29.6144 26.9341 29.1635 26.9341 28.6299C26.9341 28.1514 26.7426 27.765 26.3596 27.4705C25.9766 27.1761 25.4021 26.9184 24.6361 26.6976L22.973 26.2008C22.1465 25.9615 21.4006 25.7039 20.7354 25.4279C20.0702 25.1518 19.5058 24.8206 19.0421 24.4341C18.5785 24.0477 18.2156 23.5876 17.9536 23.054C17.6915 22.5203 17.5605 21.8854 17.5605 21.1493C17.5605 19.8979 17.9838 18.8582 18.8305 18.0301C19.6771 17.202 20.8866 16.6499 22.459 16.3739V15.5888C22.459 14.7724 23.0245 14.0428 23.8402 14.0069C23.9449 14.0023 24.0491 14 24.1523 14C24.8981 14 25.4323 14.1196 25.7549 14.3588C26.0976 14.5981 26.2689 15.0305 26.2689 15.6562V16.2635C27.559 16.3923 28.6073 16.6775 29.4136 17.1192C30.2199 17.5424 30.6231 18.1037 30.6231 18.803C30.6231 19.1145 30.5407 19.4029 30.3982 19.6646C30.0189 20.3606 29.0722 20.3093 28.3212 20.0558C28.1065 19.9833 27.876 19.9154 27.6296 19.8519C26.8636 19.6311 26.027 19.5207 25.1199 19.5207C24.112 19.5207 23.356 19.6771 22.8521 19.99C22.3682 20.2844 22.1263 20.6708 22.1263 21.1493C22.1263 21.5358 22.2876 21.8486 22.6102 22.0878C22.9528 22.3271 23.4669 22.5479 24.1523 22.7503L25.8456 23.2196C27.6598 23.7348 29.0508 24.4157 30.0184 25.2622C31.0061 26.1087 31.5 27.2497 31.5 28.6851C31.5 29.9548 31.0565 31.0314 30.1695 31.9147C29.2826 32.7796 27.9824 33.3593 26.2689 33.6537V34.4112C26.2689 35.2277 25.7033 35.9573 24.8877 35.9931C24.783 35.9977 24.6788 36 24.5756 36C23.8297 36 23.2855 35.8804 22.9428 35.6412C22.6202 35.4019 22.459 34.9695 22.459 34.3438V33.7917C20.9874 33.6445 19.788 33.3225 18.8607 32.8256C17.9536 32.3103 17.5 31.6662 17.5 30.8933C17.5 30.4419 17.6733 30.0499 17.9513 29.7202C18.449 29.1302 19.3352 29.2765 20.0209 29.631C20.3134 29.7822 20.6322 29.9269 20.9773 30.0652C21.8038 30.3781 22.7513 30.5345 23.8197 30.5345Z" fill="#BF0909"/>
</svg>
